HIERARCHY
ROOT mixamorig:Hips
{
	OFFSET 0.000000 201.639420 0.000000
	CHANNELS 6 Xposition Yposition Zposition Xrotation Yrotation Zrotation
	JOINT mixamorig:Spine
	{
		OFFSET 0.006200 19.524994 -2.481800
		CHANNELS 3 Xrotation Yrotation Zrotation
		JOINT mixamorig:Spine1
		{
			OFFSET -0.000900 22.835007 -2.825400
			CHANNELS 3 Xrotation Yrotation Zrotation
			JOINT mixamorig:Spine2
			{
				OFFSET -0.020600 26.552490 -3.193300
				CHANNELS 3 Xrotation Yrotation Zrotation
				JOINT mixamorig:Neck
				{
					OFFSET -0.060000 30.701813 1.352200
					CHANNELS 3 Xrotation Yrotation Zrotation
					JOINT mixamorig:Head
					{
						OFFSET -0.087200 22.547607 3.670900
						CHANNELS 3 Xrotation Yrotation Zrotation
						JOINT mixamorig:HeadTop_End
						{
							OFFSET -0.830600 40.355194 7.893500
							CHANNELS 3 Xrotation Yrotation Zrotation
							End Site
							{
								OFFSET 0.000000 30.592346 0.000000
							}
						}
						JOINT mixamorig:RightEye
						{
							OFFSET -6.302100 18.118591 16.197100
							CHANNELS 3 Xrotation Yrotation Zrotation
							End Site
							{
								OFFSET 0.000000 30.592346 0.000000
							}
						}
						JOINT mixamorig:LeftEye
						{
							OFFSET 6.741500 18.382690 16.401899
							CHANNELS 3 Xrotation Yrotation Zrotation
							End Site
							{
								OFFSET 0.000000 30.592346 0.000000
							}
						}
					}
				}
				JOINT mixamorig:LeftShoulder
				{
					OFFSET 11.924900 18.230499 1.425400
					CHANNELS 3 Xrotation Yrotation Zrotation
					JOINT mixamorig:LeftArm
					{
						OFFSET 25.435989 -0.697632 -5.229300
						CHANNELS 3 Xrotation Yrotation Zrotation
						JOINT mixamorig:LeftForeArm
						{
							OFFSET 54.684776 0.000000 0.000000
							CHANNELS 3 Xrotation Yrotation Zrotation
							JOINT mixamorig:LeftHand
							{
								OFFSET 55.098175 0.000000 0.000000
								CHANNELS 3 Xrotation Yrotation Zrotation
								JOINT mixamorig:LeftHandMiddle1
								{
									OFFSET 23.369751 0.000000 0.000000
									CHANNELS 3 Xrotation Yrotation Zrotation
									JOINT mixamorig:LeftHandMiddle2
									{
										OFFSET 6.378677 0.000000 0.000000
										CHANNELS 3 Xrotation Yrotation Zrotation
										JOINT mixamorig:LeftHandMiddle3
										{
											OFFSET 6.148331 0.000000 0.000000
											CHANNELS 3 Xrotation Yrotation Zrotation
											JOINT mixamorig:LeftHandMiddle4
											{
												OFFSET 6.582504 0.000000 0.000000
												CHANNELS 3 Xrotation Yrotation Zrotation
												End Site
												{
													OFFSET -1.168900 6.395691 1.028606
												}
											}
										}
									}
								}
								JOINT mixamorig:LeftHandThumb1
								{
									OFFSET 7.235672 -3.848206 5.434273
									CHANNELS 3 Xrotation Yrotation Zrotation
									JOINT mixamorig:LeftHandThumb2
									{
										OFFSET 6.568451 -3.792297 3.792300
										CHANNELS 3 Xrotation Yrotation Zrotation
										JOINT mixamorig:LeftHandThumb3
										{
											OFFSET 6.063080 -3.500519 3.500518
											CHANNELS 3 Xrotation Yrotation Zrotation
											JOINT mixamorig:LeftHandThumb4
											{
												OFFSET 4.793182 -2.767334 2.767349
												CHANNELS 3 Xrotation Yrotation Zrotation
												End Site
												{
													OFFSET 0.101639 6.054260 1.275483
												}
											}
										}
									}
								}
								JOINT mixamorig:LeftHandIndex1
								{
									OFFSET 23.101074 -0.309540 4.992809
									CHANNELS 3 Xrotation Yrotation Zrotation
									JOINT mixamorig:LeftHandIndex2
									{
										OFFSET 6.226883 0.000000 0.000000
										CHANNELS 3 Xrotation Yrotation Zrotation
										JOINT mixamorig:LeftHandIndex3
										{
											OFFSET 6.094330 0.000000 0.000000
											CHANNELS 3 Xrotation Yrotation Zrotation
											JOINT mixamorig:LeftHandIndex4
											{
												OFFSET 5.482605 0.000000 0.000000
												CHANNELS 3 Xrotation Yrotation Zrotation
												End Site
												{
													OFFSET -1.427902 5.233032 0.797164
												}
											}
										}
									}
								}
								JOINT mixamorig:LeftHandRing1
								{
									OFFSET 22.299240 0.021149 -3.964172
									CHANNELS 3 Xrotation Yrotation Zrotation
									JOINT mixamorig:LeftHandRing2
									{
										OFFSET 6.321869 0.000000 0.000000
										CHANNELS 3 Xrotation Yrotation Zrotation
										JOINT mixamorig:LeftHandRing3
										{
											OFFSET 5.899796 0.000000 0.000000
											CHANNELS 3 Xrotation Yrotation Zrotation
											JOINT mixamorig:LeftHandRing4
											{
												OFFSET 6.517899 0.000000 0.000000
												CHANNELS 3 Xrotation Yrotation Zrotation
												End Site
												{
													OFFSET -1.637299 6.232208 0.980890
												}
											}
										}
									}
								}
								JOINT mixamorig:LeftHandPinky1
								{
									OFFSET 20.463791 -0.302338 -8.562233
									CHANNELS 3 Xrotation Yrotation Zrotation
									JOINT mixamorig:LeftHandPinky2
									{
										OFFSET 6.908646 0.000000 0.000000
										CHANNELS 3 Xrotation Yrotation Zrotation
										JOINT mixamorig:LeftHandPinky3
										{
											OFFSET 4.622849 0.000000 0.000000
											CHANNELS 3 Xrotation Yrotation Zrotation
											JOINT mixamorig:LeftHandPinky4
											{
												OFFSET 5.216080 0.000000 0.000000
												CHANNELS 3 Xrotation Yrotation Zrotation
												End Site
												{
													OFFSET -0.606308 5.116241 0.814926
												}
											}
										}
									}
								}
							}
						}
					}
				}
				JOINT mixamorig:RightShoulder
				{
					OFFSET -12.001300 18.284088 1.348900
					CHANNELS 3 Xrotation Yrotation Zrotation
					JOINT mixamorig:RightArm
					{
						OFFSET -25.308500 -0.751312 -5.164599
						CHANNELS 3 Xrotation Yrotation Zrotation
						JOINT mixamorig:RightForeArm
						{
							OFFSET -54.684429 0.000000 0.000000
							CHANNELS 3 Xrotation Yrotation Zrotation
							JOINT mixamorig:RightHand
							{
								OFFSET -55.150291 0.000000 0.000000
								CHANNELS 3 Xrotation Yrotation Zrotation
								JOINT mixamorig:RightHandMiddle1
								{
									OFFSET -23.317566 0.000000 0.000000
									CHANNELS 3 Xrotation Yrotation Zrotation
									JOINT mixamorig:RightHandMiddle2
									{
										OFFSET -6.378403 0.000000 0.000000
										CHANNELS 3 Xrotation Yrotation Zrotation
										JOINT mixamorig:RightHandMiddle3
										{
											OFFSET -6.148193 0.000000 0.000000
											CHANNELS 3 Xrotation Yrotation Zrotation
											JOINT mixamorig:RightHandMiddle4
											{
												OFFSET -6.583389 0.000000 0.000000
												CHANNELS 3 Xrotation Yrotation Zrotation
												End Site
												{
													OFFSET 1.171692 6.395905 1.029786
												}
											}
										}
									}
								}
								JOINT mixamorig:RightHandThumb1
								{
									OFFSET -7.190521 -3.860474 5.435846
									CHANNELS 3 Xrotation Yrotation Zrotation
									JOINT mixamorig:RightHandThumb2
									{
										OFFSET -6.567429 -3.791718 3.791708
										CHANNELS 3 Xrotation Yrotation Zrotation
										JOINT mixamorig:RightHandThumb3
										{
											OFFSET -6.062469 -3.500153 3.500166
											CHANNELS 3 Xrotation Yrotation Zrotation
											JOINT mixamorig:RightHandThumb4
											{
												OFFSET -4.792618 -2.767029 2.767022
												CHANNELS 3 Xrotation Yrotation Zrotation
												End Site
												{
													OFFSET -0.100327 6.053253 1.276754
												}
											}
										}
									}
								}
								JOINT mixamorig:RightHandIndex1
								{
									OFFSET -23.048981 -0.310791 4.992554
									CHANNELS 3 Xrotation Yrotation Zrotation
									JOINT mixamorig:RightHandIndex2
									{
										OFFSET -6.227539 0.000000 0.000000
										CHANNELS 3 Xrotation Yrotation Zrotation
										JOINT mixamorig:RightHandIndex3
										{
											OFFSET -6.095047 0.000000 0.000000
											CHANNELS 3 Xrotation Yrotation Zrotation
											JOINT mixamorig:RightHandIndex4
											{
												OFFSET -5.484772 0.000000 0.000000
												CHANNELS 3 Xrotation Yrotation Zrotation
												End Site
												{
													OFFSET 1.420593 5.237305 0.797056
												}
											}
										}
									}
								}
								JOINT mixamorig:RightHandRing1
								{
									OFFSET -22.246323 0.020569 -3.963762
									CHANNELS 3 Xrotation Yrotation Zrotation
									JOINT mixamorig:RightHandRing2
									{
										OFFSET -6.322128 0.000000 0.000000
										CHANNELS 3 Xrotation Yrotation Zrotation
										JOINT mixamorig:RightHandRing3
										{
											OFFSET -5.900024 0.000000 0.000000
											CHANNELS 3 Xrotation Yrotation Zrotation
											JOINT mixamorig:RightHandRing4
											{
												OFFSET -6.518356 0.000000 0.000000
												CHANNELS 3 Xrotation Yrotation Zrotation
												End Site
												{
													OFFSET 1.636398 6.232697 0.982186
												}
											}
										}
									}
								}
								JOINT mixamorig:RightHandPinky1
								{
									OFFSET -20.411011 -0.303314 -8.561701
									CHANNELS 3 Xrotation Yrotation Zrotation
									JOINT mixamorig:RightHandPinky2
									{
										OFFSET -6.907349 0.000000 0.000000
										CHANNELS 3 Xrotation Yrotation Zrotation
										JOINT mixamorig:RightHandPinky3
										{
											OFFSET -4.623840 0.000000 0.000000
											CHANNELS 3 Xrotation Yrotation Zrotation
											JOINT mixamorig:RightHandPinky4
											{
												OFFSET -5.218353 0.000000 0.000000
												CHANNELS 3 Xrotation Yrotation Zrotation
												End Site
												{
													OFFSET 0.602097 5.118835 0.816273
												}
											}
										}
									}
								}
							}
						}
					}
				}
			}
		}
	}
	JOINT mixamorig:LeftUpLeg
	{
		OFFSET 18.168400 -13.561905 -0.039000
		CHANNELS 3 Xrotation Yrotation Zrotation
		JOINT mixamorig:LeftLeg
		{
			OFFSET 0.577358 -80.825211 -3.695000
			CHANNELS 3 Xrotation Yrotation Zrotation
			JOINT mixamorig:LeftFoot
			{
				OFFSET -0.577356 -83.370262 -6.520700
				CHANNELS 3 Xrotation Yrotation Zrotation
				JOINT mixamorig:LeftToeBase
				{
					OFFSET 0.750401 -20.798306 25.135401
					CHANNELS 3 Xrotation Yrotation Zrotation
					JOINT mixamorig:LeftToe_End
					{
						OFFSET -0.000500 0.001200 19.917799
						CHANNELS 3 Xrotation Yrotation Zrotation
						End Site
						{
							OFFSET 0.000000 19.917805 0.000000
						}
					}
				}
			}
		}
	}
	JOINT mixamorig:RightUpLeg
	{
		OFFSET -18.162500 -13.585098 -0.041000
		CHANNELS 3 Xrotation Yrotation Zrotation
		JOINT mixamorig:RightLeg
		{
			OFFSET -0.595024 -80.945297 -3.631900
			CHANNELS 3 Xrotation Yrotation Zrotation
			JOINT mixamorig:RightFoot
			{
				OFFSET 0.595024 -83.218193 -6.561200
				CHANNELS 3 Xrotation Yrotation Zrotation
				JOINT mixamorig:RightToeBase
				{
					OFFSET -0.753601 -20.807106 25.115000
					CHANNELS 3 Xrotation Yrotation Zrotation
					JOINT mixamorig:RightToe_End
					{
						OFFSET 0.000299 0.001700 19.918200
						CHANNELS 3 Xrotation Yrotation Zrotation
						End Site
						{
							OFFSET 0.000000 19.918203 0.000000
						}
					}
				}
			}
		}
	}
}
MOTION
Frames: 4
Frame Time: 0.033333
-4.422634 109.619278 2.654610 -38.095554 22.654435 6.172026 11.753886 3.888471 0.517114 23.474764 8.086350 1.010934 23.474771 8.086363 1.010928 -4.596591 6.339295 -0.349842 -7.304537 30.970181 1.420119 -0.000000 0.000001 0.000000 -0.000000 0.000001 0.000000 -0.000000 0.000001 0.000000 -0.453509 -15.153243 -3.110912 -76.055454 -37.316756 -78.933969 83.152738 -145.450886 96.057643 -15.982718 -48.915291 -27.089319 -1.084644 6.176439 -37.509586 -2.440199 -4.107474 -61.180648 -0.000000 0.000007 0.000001 0.000001 -0.000000 0.000001 -2.024998 29.189677 -18.606366 17.196905 -8.422333 13.778597 0.000003 0.000005 -0.000003 -0.000001 -0.000000 -0.000000 -10.121828 5.081670 -21.372569 1.021882 0.896275 -90.817467 -0.000006 0.000008 -0.000006 -0.000001 0.000000 -0.000002 -6.020264 12.020645 -48.385323 -2.528366 -4.272615 -61.427880 -0.000001 -0.000004 -0.000002 -0.000002 0.000003 0.000000 -13.239646 8.112543 -63.694813 -2.186596 -4.972412 -47.886688 0.000004 -0.000004 -0.000001 0.000000 0.000000 -0.000001 0.373138 0.971896 -7.927451 -31.899292 7.577257 38.842610 -109.230093 67.600629 120.649937 16.474992 -11.859202 -49.787066 -0.857567 -0.515443 41.211213 -1.456771 2.810319 44.614755 0.000014 -0.000006 0.000000 0.000001 0.000001 -0.000000 34.785798 13.296484 8.121032 4.159011 -10.889213 -2.543929 0.000008 -0.000003 -0.000002 0.000001 -0.000004 -0.000001 -7.939679 -2.969121 37.547975 -2.265536 2.045716 57.712551 0.000002 -0.000001 -0.000002 -0.000002 0.000002 -0.000003 -0.829455 -0.774026 36.076103 -0.792716 3.405004 32.320776 0.000007 0.000002 -0.000002 0.000001 -0.000000 0.000004 1.070122 1.329523 31.590359 -0.699020 6.641341 22.117763 -0.000003 0.000001 0.000001 -0.000001 0.000003 0.000001 -64.581515 12.166330 7.437056 94.753316 -7.941225 -3.116746 9.010229 0.512376 19.840955 -13.256082 0.062091 -0.375849 -0.000001 -0.000001 0.000000 -52.301880 8.205129 -26.403295 89.778861 -21.251408 1.953366 9.697615 6.059092 11.284911 0.601290 -0.112845 0.000208 0.000000 -0.000001 -0.000000 
-4.010145 109.424362 1.689873 -39.377871 21.079260 5.129546 11.860467 3.524673 0.637872 23.693212 7.308043 1.146782 23.693212 7.308043 1.146780 -3.934609 5.651795 -0.840536 -8.881455 26.194131 4.211538 -0.000000 0.000001 -0.000000 -0.000000 0.000001 -0.000000 -0.000000 0.000001 -0.000000 -0.225311 -14.753979 -1.940176 -72.662442 -36.244453 -74.593828 85.005877 -146.302939 95.472043 -12.651339 -49.575484 -21.839783 -1.007969 6.007080 -37.535216 -2.267346 -4.014486 -58.575573 0.000001 0.000004 0.000001 -0.000001 -0.000001 -0.000001 -2.008473 29.047548 -18.347382 17.197240 -8.422341 13.778222 0.000006 0.000006 -0.000003 0.000001 0.000000 -0.000000 -10.025298 4.889471 -21.323676 0.970861 0.881279 -91.586478 -0.000006 0.000007 -0.000005 -0.000001 -0.000003 0.000001 -5.962844 11.841719 -48.420550 -2.299790 -4.137169 -58.448244 0.000003 -0.000009 -0.000001 -0.000002 0.000003 0.000001 -13.165507 7.913505 -63.760028 -1.557943 -4.366809 -40.623090 -0.000003 -0.000001 -0.000001 -0.000001 0.000001 0.000001 0.454017 1.315659 -7.414841 -32.266148 7.863744 43.466511 -101.033285 69.046751 112.929644 17.342754 -9.131393 -46.818935 -0.754184 -0.643008 39.072705 -1.373175 2.723652 43.265840 0.000013 -0.000004 -0.000003 0.000002 0.000001 -0.000002 36.279028 12.938894 7.475758 4.167973 -10.906508 -2.542550 0.000008 -0.000009 -0.000006 0.000002 0.000001 -0.000004 -7.915059 -2.992956 37.096520 -2.151899 1.970331 56.427283 -0.000003 -0.000003 -0.000000 -0.000001 -0.000000 -0.000002 -0.715199 -0.936723 34.150338 -0.804195 3.423055 32.569586 0.000004 -0.000003 -0.000001 0.000004 0.000001 0.000000 1.155380 1.164243 30.358907 -0.753765 6.774592 24.032973 0.000002 0.000004 0.000001 -0.000003 0.000000 0.000000 -63.529106 11.027573 8.559304 94.850864 -7.000184 -3.052398 8.794722 0.359397 19.498681 -13.093502 0.055794 -0.351775 0.000000 0.000001 0.000000 -51.392440 7.247519 -24.818930 88.835237 -21.544274 1.904729 10.392916 6.397643 10.295996 0.601330 -0.112724 -0.000166 0.000000 -0.000001 -0.000000 
-3.323841 109.203476 0.537872 -40.628964 19.224421 3.993984 11.955054 3.094540 0.749227 23.888100 6.397326 1.264620 23.888112 6.397338 1.264614 -2.949629 4.842110 -1.673140 -10.379057 20.170484 6.920913 0.000001 0.000003 -0.000000 0.000001 0.000003 -0.000000 0.000001 0.000003 -0.000000 -0.021140 -13.852724 -0.759872 -68.151600 -34.855835 -69.118420 85.606094 -146.488693 92.697955 -8.891452 -49.996595 -14.347243 -0.931484 5.837661 -37.560327 -2.085052 -3.908973 -55.695306 -0.000003 0.000006 0.000002 -0.000003 -0.000002 -0.000001 -1.990879 28.907229 -18.092538 17.197701 -8.422435 13.778157 0.000002 0.000005 -0.000003 -0.000002 -0.000001 -0.000000 -9.928429 4.697442 -21.274047 0.877337 0.860222 -91.757902 -0.000004 0.000009 -0.000007 -0.000000 0.000000 0.000001 -5.905668 11.662744 -48.455329 -2.061042 -3.975424 -55.279453 -0.000001 -0.000007 -0.000000 -0.000000 -0.000000 0.000001 -13.091861 7.714307 -63.824846 -1.378949 -4.206210 -38.929268 0.000000 0.000000 -0.000001 0.000000 -0.000002 0.000000 0.574444 1.945036 -6.787349 -32.001379 8.316910 47.892959 -93.481575 69.679862 105.835803 18.667952 -6.490053 -43.815786 -0.657792 -0.771609 36.962747 -1.288404 2.631433 41.863151 0.000014 -0.000007 -0.000002 -0.000001 0.000001 -0.000000 37.695971 12.614753 6.684163 4.177263 -10.924415 -2.541085 0.000008 -0.000009 -0.000006 0.000001 0.000000 -0.000004 -7.890166 -3.018330 36.627371 -2.035770 1.888960 55.089328 0.000004 0.000000 -0.000001 0.000004 -0.000001 0.000000 -0.609787 -1.097530 32.280106 -0.819932 3.447465 32.907626 0.000007 -0.000002 -0.000003 0.000000 -0.000000 -0.000003 1.237830 0.996623 29.080599 -0.807283 6.894357 25.784203 0.000001 0.000004 -0.000001 -0.000001 -0.000001 -0.000000 -62.373110 9.942699 9.665992 94.859737 -5.932835 -2.982125 8.500507 0.190508 19.053719 -12.425398 0.048522 -0.313889 0.000001 0.000001 0.000000 -50.537198 6.305042 -23.288368 87.662377 -21.684136 1.851987 11.252941 6.885019 9.045638 0.604857 -0.112541 -0.000628 -0.000000 -0.000001 0.000000 
-2.432476 108.949036 -0.771591 -41.952647 17.163587 2.829341 12.055816 2.615482 0.846025 24.094961 5.393474 1.363092 24.094966 5.393477 1.363094 -1.857778 4.003026 -2.597151 -11.549400 13.857152 9.035190 -0.000000 -0.000001 -0.000000 -0.000000 -0.000001 -0.000000 -0.000000 -0.000001 -0.000000 0.104781 -12.683866 0.167233 -63.610556 -33.353347 -63.854803 85.724243 -145.996031 89.036618 -4.250769 -49.881773 -5.195935 -0.855116 5.668184 -37.584940 -1.999132 -3.864229 -54.118481 0.000002 0.000000 0.000001 -0.000002 0.000001 0.000001 -1.972277 28.768733 -17.841842 17.198239 -8.422597 13.778340 0.000003 0.000007 -0.000003 -0.000002 0.000000 0.000000 -9.831166 4.505580 -21.223708 0.743833 0.830628 -91.299863 -0.000007 0.000005 -0.000005 0.000000 -0.000004 0.000002 -5.848690 11.483692 -48.489651 -1.914688 -3.862613 -53.406468 0.000002 -0.000008 -0.000001 -0.000001 0.000002 -0.000001 -13.018655 7.514934 -63.889241 -1.172595 -4.012518 -36.997834 -0.000002 -0.000000 -0.000001 0.000000 -0.000000 0.000000 0.715045 2.725001 -6.073534 -31.499787 9.465503 51.989556 -85.213823 69.653320 97.768257 20.116953 -3.726496 -40.839156 -0.570899 -0.896826 34.955044 -1.203233 2.534036 40.414093 0.000014 -0.000008 -0.000002 -0.000001 0.000001 -0.000002 38.987150 12.350596 5.732477 4.186777 -10.942748 -2.539617 0.000008 -0.000007 -0.000002 0.000000 -0.000002 0.000000 -7.865193 -3.045177 36.143073 -1.918078 1.801797 53.705535 0.000004 -0.000004 -0.000003 0.000001 -0.000002 0.000002 -0.516181 -1.250458 30.530146 -0.839290 3.477069 33.319046 0.000006 0.000001 -0.000003 -0.000006 0.000003 0.000001 1.316578 0.828212 27.762545 -0.853306 6.990975 27.225979 -0.000004 0.000002 -0.000002 0.000000 0.000000 0.000000 -61.030424 8.943236 10.740743 94.778512 -4.751897 -2.907123 8.137101 0.008662 18.513974 -11.497653 0.036920 -0.258220 -0.000000 0.000000 0.000000 -49.637929 5.339962 -21.880803 86.306940 -21.758280 1.794352 12.245738 7.595365 7.523136 0.610854 -0.112305 -0.001141 0.000000 -0.000000 0.000000 
